<svg width="69" height="60" viewBox="0 0 69 60" fill="none" xmlns="http://www.w3.org/2000/svg">
<path d="M47.9474 11.352H61.1546C61.7909 11.352 62.421 11.4784 63.0089 11.7243C63.5967 11.9701 64.1308 12.3304 64.5807 12.7847C65.0307 13.2389 65.3877 13.7781 65.6312 14.3716C65.8747 14.9651 66 15.6012 66 16.2436V52.1082C66 52.7506 65.8747 53.3868 65.6312 53.9802C65.3877 54.5737 65.0307 55.1129 64.5807 55.5672C64.1308 56.0214 63.5967 56.3817 63.0089 56.6275C62.421 56.8734 61.7909 57 61.1546 57H7.84513C6.56007 57 5.32765 56.4845 4.41898 55.5672C3.51031 54.6498 3 53.4056 3 52.1082V16.2436C3 14.9462 3.51031 13.702 4.41898 12.7847C5.32765 11.8673 6.56007 11.352 7.84513 11.352H21.7449C21.6221 11.0589 21.622 6.0883 21.622 6.0883C21.6205 5.68232 21.6985 5.28 21.8517 4.90464C22.0049 4.52928 22.2303 4.18829 22.5146 3.90122C22.799 3.61414 23.1369 3.38667 23.5087 3.23199C23.8805 3.07732 24.2788 2.99853 24.681 3.00002H45.0223C45.8336 3.00002 46.6117 3.32535 47.1853 3.90452C47.759 4.48368 48.0813 5.26923 48.0813 6.0883C48.0813 6.0883 48.0256 11.0589 47.9474 11.352Z" stroke="#093030" stroke-width="4.5" stroke-linecap="round" stroke-linejoin="round"/>
</svg>
