<svg width="26" height="24" viewBox="0 0 26 24" fill="none" xmlns="http://www.w3.org/2000/svg">
<path d="M17.1399 4.12043C17.1399 5.84379 13.5269 7.24085 9.06997 7.24085C4.61305 7.24085 1 5.84379 1 4.12043C1 2.39706 4.61305 1 9.06997 1C13.5269 1 17.1399 2.39706 17.1399 4.12043ZM17.1399 4.12043V8.80366M1.00002 4.12561V9.45051C1.00002 11.1737 4.5935 12.5554 9.06997 12.5554C9.67573 12.5554 10.2609 12.5295 10.8256 12.4778M1.00002 8.80883V14.7806C1.00002 16.5038 4.5935 17.8855 9.06997 17.8855C9.46012 17.8855 9.83999 17.8751 10.2096 17.8544M1.00002 13.7404V19.7381C1.00002 21.4613 4.5935 22.843 9.06997 22.843C10.6271 22.8566 12.1796 22.6705 13.6902 22.2893M15.3278 17.782C15.3278 18.0223 15.3749 18.2603 15.4663 18.4823C15.5577 18.7042 15.6916 18.9058 15.8604 19.0755C16.0292 19.2452 16.2295 19.3797 16.45 19.4712C16.6704 19.5627 16.9067 19.6094 17.1451 19.6087C17.6257 19.6087 18.0866 19.4163 18.4265 19.0737C18.7663 18.7311 18.9572 18.2665 18.9572 17.782C18.9211 17.441 18.7936 17.1163 18.5883 16.8428C18.383 16.5693 18.1077 16.3573 17.7919 16.2295C16.8781 15.7121 15.3278 15.5102 15.3278 14.1596C15.3271 13.9188 15.3737 13.6804 15.4648 13.4578C15.5558 13.2352 15.6897 13.033 15.8585 12.8628C16.0274 12.6925 16.2281 12.5576 16.4489 12.4658C16.6696 12.374 16.9062 12.327 17.1451 12.3277C17.3835 12.3277 17.6196 12.3751 17.8398 12.4673C18.06 12.5594 18.26 12.6944 18.4283 12.8646C18.5967 13.0348 18.73 13.2367 18.8208 13.459C18.9115 13.6812 18.9579 13.9193 18.9572 14.1596M17.1399 12.2915V11.4273M17.1399 20.4677V19.6087M24.2243 15.9501C24.2243 19.8941 21.0525 23.0914 17.1399 23.0914C13.2274 23.0914 10.0556 19.8941 10.0556 15.9501C10.0556 12.0061 13.2274 8.80883 17.1399 8.80883C21.0525 8.80883 24.2243 12.0061 24.2243 15.9501Z" stroke="#F1FFF3" stroke-width="1.69934" stroke-linecap="round" stroke-linejoin="round"/>
</svg>
