<svg width="54" height="55" viewBox="0 0 54 55" fill="none" xmlns="http://www.w3.org/2000/svg">
<path d="M44.2048 30.2228L50.8579 34.0659C51.0088 34.1484 51.1418 34.2599 51.2494 34.394C51.3571 34.5281 51.4372 34.6821 51.4852 34.8473C51.5331 35.0124 51.5481 35.1853 51.5291 35.3561C51.5101 35.527 51.4575 35.6925 51.3744 35.8431L46.3086 44.6153C46.1354 44.9134 45.8514 45.1309 45.5185 45.2206C45.1856 45.3102 44.8308 45.2646 44.5314 45.0937L37.8858 41.2963C36.4603 42.4442 34.8637 43.3616 33.1541 44.0152V51.6937C33.1551 51.8649 33.1223 52.0346 33.0575 52.193C32.9927 52.3515 32.8972 52.4955 32.7765 52.6169C32.6558 52.7383 32.5122 52.8347 32.3542 52.9004C32.1961 52.9662 32.0266 53 31.8554 53H21.7314C21.5598 53 21.39 52.9662 21.2315 52.9006C21.073 52.8349 20.9289 52.7387 20.8076 52.6174C20.6863 52.4961 20.5901 52.3521 20.5245 52.1936C20.4588 52.0351 20.425 51.8652 20.425 51.6937V44.0152C18.7163 43.3599 17.12 42.4426 15.6934 41.2963L9.05542 45.0937C8.756 45.2646 8.40114 45.3102 8.06823 45.2206C7.73532 45.1309 7.45133 44.9134 7.27818 44.6153L2.21238 35.8431C2.04147 35.5436 1.99587 35.1888 2.0855 34.8559C2.17513 34.523 2.39273 34.239 2.69086 34.0659L9.34403 30.2228C9.19585 29.3213 9.11714 28.4098 9.10859 27.4962C9.11747 26.5852 9.19618 25.6763 9.34403 24.7773L2.69086 20.9342C2.53875 20.853 2.40424 20.7424 2.29508 20.6089C2.18591 20.4754 2.10424 20.3216 2.05481 20.1564C2.00539 19.9911 1.98915 19.8178 2.00707 19.6463C2.02499 19.4747 2.0767 19.3085 2.15921 19.157L7.22501 10.3848C7.39816 10.0867 7.68215 9.86915 8.01506 9.77952C8.34797 9.68989 8.70283 9.73545 9.00225 9.90635L15.6402 13.7038C17.0684 12.5578 18.6643 11.6382 20.3719 10.9773V3.2988C20.3739 2.95365 20.5124 2.62328 20.7572 2.37993C21.0019 2.13659 21.333 1.99999 21.6782 2H31.8174C32.1619 2 32.4922 2.13684 32.7358 2.3804C32.9793 2.62396 33.1162 2.95435 33.1162 3.2988V10.9773C34.8246 11.6366 36.4207 12.5563 37.8478 13.7038L44.4934 9.90635C44.7928 9.73545 45.1476 9.68989 45.4806 9.77952C45.8135 9.86915 46.0975 10.0867 46.2706 10.3848L51.3364 19.157C51.5073 19.4564 51.5529 19.8113 51.4633 20.1442C51.3737 20.4771 51.1561 20.7611 50.8579 20.9342L44.2048 24.7773C44.3501 25.6765 44.4263 26.5854 44.4326 27.4962C44.4266 28.4096 44.3504 29.3211 44.2048 30.2228Z" stroke="#093030" stroke-width="4" stroke-linecap="round" stroke-linejoin="round"/>
</svg>
