<svg width="45" height="55" viewBox="0 0 45 55" fill="none" xmlns="http://www.w3.org/2000/svg">
<path d="M3.41345 36.3613C2.42396 38.8675 1.9451 41.5462 2.005 44.24C2.005 55.41 42.435 55.41 42.455 44.24C42.5149 41.5462 42.0361 38.8675 41.0466 36.3613C40.0571 33.8551 38.5769 31.5717 36.6929 29.6454C34.8089 27.719 32.5591 26.1884 30.0754 25.1435C27.5918 24.0985 24.9245 23.5602 22.23 23.5602C19.5355 23.5602 16.8681 24.0985 14.3845 25.1435C11.9009 26.1884 9.65108 27.719 7.76709 29.6454C5.88309 31.5717 4.40293 33.8551 3.41345 36.3613Z" stroke="#093030" stroke-width="4" stroke-linecap="round" stroke-linejoin="round"/>
<path d="M22.215 18.24C26.6996 18.24 30.335 14.6046 30.335 10.12C30.335 5.63545 26.6996 2 22.215 2C17.7305 2 14.095 5.63545 14.095 10.12C14.095 14.6046 17.7305 18.24 22.215 18.24Z" stroke="#093030" stroke-width="4" stroke-linecap="round" stroke-linejoin="round"/>
</svg>
